# Blender v2.82 (sub 7) OBJ File: ''
# www.blender.org
mtllib box.mtl
o Cube
v 1.000000 1.000000 -1.000000
v 1.000000 -1.000000 -1.000000
v 1.000000 1.000000 1.000000
v 1.000000 -1.000000 1.000000
v -1.000000 1.000000 -1.000000
v -1.000000 -1.000000 -1.000000
v -1.000000 1.000000 1.000000
v -1.000000 -1.000000 1.000000
vt 0.000551 0.503490
vt 0.491510 0.503490
vt 0.491510 0.999174
vt 0.000551 0.999174
vt 0.484418 0.007766
vt 0.482094 0.493996
vt 0.014763 0.491762
vt 0.017087 0.005533
vt 0.488356 0.001937
vt 0.490755 0.485017
vt 0.001376 0.487448
vt -0.001023 0.004368
vt 0.502976 -0.000819
vt 0.995511 -0.000819
vt 0.995511 0.494866
vt 0.502976 0.494866
vt 0.000738 0.498578
vt -0.000388 0.004470
vt 0.485844 0.003344
vt 0.486970 0.497452
vt 0.494527 0.012496
vt 0.490875 0.492417
vt -0.001645 0.488670
vt 0.002007 0.008748
vn 0.0000 1.0000 0.0000
vn 0.0000 0.0000 1.0000
vn -1.0000 0.0000 0.0000
vn 0.0000 -1.0000 0.0000
vn 1.0000 0.0000 0.0000
vn 0.0000 0.0000 -1.0000
usemtl Material
s off
f 1/1/1 5/2/1 7/3/1 3/4/1
f 4/5/2 3/6/2 7/7/2 8/8/2
f 8/9/3 7/10/3 5/11/3 6/12/3
f 6/13/4 2/14/4 4/15/4 8/16/4
f 2/17/5 1/18/5 3/19/5 4/20/5
f 6/21/6 5/22/6 1/23/6 2/24/6
